<?xml version="1.0" standalone="no"?>
<!DOCTYPE svg PUBLIC "-//W3C//DTD SVG 20010904//EN"
 "http://www.w3.org/TR/2001/REC-SVG-20010904/DTD/svg10.dtd">
<svg version="1.0" xmlns="http://www.w3.org/2000/svg"
 width="576.000000pt" height="433.000000pt" viewBox="0 0 576.000000 433.000000"
 preserveAspectRatio="xMidYMid meet">

<g transform="translate(0.000000,433.000000) scale(0.100000,-0.100000)"
fill="#000000" stroke="none">
<path d="M2185 4186 c-71 -23 -128 -58 -176 -107 -50 -52 -89 -118 -239 -404
-28 -55 -84 -160 -123 -232 l-72 -133 -107 0 -108 0 -5 28 c-17 79 -71 122
-153 122 -43 0 -60 5 -84 25 -28 24 -36 25 -158 25 -122 0 -130 -1 -158 -25
-24 -20 -41 -25 -86 -25 -50 0 -60 -4 -92 -32 -19 -18 -41 -51 -48 -73 -14
-40 -14 -40 -87 -52 -146 -24 -251 -83 -323 -181 -42 -58 -80 -140 -90 -196
-12 -65 -8 -2386 4 -2440 33 -150 153 -284 305 -342 49 -18 117 -19 2450 -22
1716 -2 2419 1 2467 8 151 26 268 114 339 258 l44 87 7 1165 c4 745 3 1194 -3
1245 -19 155 -121 306 -249 367 -113 54 -89 52 -693 58 l-568 5 -33 60 c-18
33 -97 182 -176 330 -78 149 -155 289 -171 311 -43 63 -124 130 -187 156 l-57
23 -665 2 c-517 1 -674 -1 -705 -11z m1010 -960 c393 -100 724 -364 903 -722
56 -111 108 -266 127 -376 21 -118 21 -354 1 -469 -49 -276 -183 -527 -390
-734 -197 -197 -419 -316 -706 -381 -116 -27 -415 -24 -535 4 -455 107 -807
397 -986 812 -214 497 -108 1080 269 1472 200 208 437 343 709 402 105 23 116
24 313 22 165 -2 197 -6 295 -30z m2091 -251 c76 -44 114 -112 114 -202 0
-137 -98 -233 -238 -233 -58 0 -75 4 -113 29 -86 55 -119 113 -119 208 1 102
76 199 171 224 54 13 139 1 185 -26z"/>
<path d="M2650 2821 c-128 -33 -234 -83 -336 -159 -174 -130 -296 -305 -361
-519 -23 -79 -26 -104 -27 -248 0 -138 3 -171 22 -239 81 -282 263 -501 517
-622 497 -237 1096 2 1294 516 50 129 64 224 58 384 -7 171 -27 247 -100 391
-117 233 -349 423 -597 490 -101 27 -371 31 -470 6z"/>
</g>
</svg>
